<svg width="17" height="17" viewBox="0 0 17 17" fill="none" xmlns="http://www.w3.org/2000/svg">
<path opacity="0.5" fill-rule="evenodd" clip-rule="evenodd" d="M7.5 0C11.6421 0 15 3.35786 15 7.5C15 9.27065 14.3864 10.898 13.3603 12.181L16.4226 15.2441C16.748 15.5695 16.748 16.0972 16.4226 16.4226C16.1222 16.723 15.6495 16.7461 15.3226 16.4919L15.2441 16.4226L12.181 13.3603C10.898 14.3864 9.27065 15 7.5 15C3.35786 15 0 11.6421 0 7.5C0 3.35786 3.35786 0 7.5 0ZM7.50033 1.66699C4.27866 1.66699 1.66699 4.27866 1.66699 7.50033C1.66699 10.722 4.27866 13.3337 7.50033 13.3337C10.722 13.3337 13.3337 10.722 13.3337 7.50033C13.3337 4.27866 10.722 1.66699 7.50033 1.66699Z" fill="#2D2D2D"/>
</svg>
